# xmcd
#
# Track frame offsets:
#	150
#	63000
#	109315
#	122539
#	206887
#	276475
#	302299
#
# Disc length: 4598 seconds
#
# Revision: 1
# Processed by: cddbd v1.5.2PL0 Copyright (c) Steve Scherf et al.
# Submitted via: audiograbber 1.83.01
#
DISCID=6011f407
DTITLE=Grateful Dead - 73-05-13 State Fairgrounds, Des Moines IA
DYEAR=1900
DGENRE=
TTITLE0=He's Gone
TTITLE1=Truckin'
TTITLE2=Phil and Billy
TTITLE3=The Other One
TTITLE4=Eyes Of The World
TTITLE5=China Doll
TTITLE6=Sugar Magnolia
EXTD=
EXTT0=
EXTT1=
EXTT2=
EXTT3=
EXTT4=
EXTT5=
EXTT6=
PLAYORDER=
